<?xml version="1.0" encoding="UTF-8"?>
<!DOCTYPE svg PUBLIC "-//W3C//DTD SVG 1.1//EN" "http://www.w3.org/Graphics/SVG/1.1/DTD/svg11.dtd">
<!-- Creator: CorelDRAW 2021 (64-Bit) -->
<svg xmlns="http://www.w3.org/2000/svg" xml:space="preserve" width="254mm" height="254mm" version="1.1" style="shape-rendering:geometricPrecision; text-rendering:geometricPrecision; image-rendering:optimizeQuality; fill-rule:evenodd; clip-rule:evenodd"
viewBox="0 0 25400 25400"
 xmlns:xlink="http://www.w3.org/1999/xlink"
 xmlns:xodm="http://www.corel.com/coreldraw/odm/2003">
 <defs>
  <style type="text/css">
   <![CDATA[
    .fil0 {fill:none}
    .fil1 {fill:#192031}
    .fil2 {fill:#FEFEFE}
    .fil3 {fill:white}
    .fil4 {fill:#192031;fill-rule:nonzero}
   ]]>
  </style>
    <clipPath id="id0">
     <path d="M-0 0l25400 0 0 25400 -25400 0 0 -25400z"/>
    </clipPath>
     <clipPath id="id1">
      <path d="M-0 0l25400 0 0 25400 -25400 0 0 -25400z"/>
     </clipPath>
     <clipPath id="id2">
      <path d="M-0 0l25400 0 0 25400 -25400 0 0 -25400z"/>
     </clipPath>
     <clipPath id="id3">
      <path d="M-0 0l25400 0 0 25400 -25400 0 0 -25400z"/>
     </clipPath>
     <clipPath id="id4">
      <path d="M-0 0l25400 0 0 25400 -25400 0 0 -25400z"/>
     </clipPath>
     <clipPath id="id5">
      <path d="M20885.71 0l4514.29 0 0 11167.52 -4514.29 0 0 -11167.52z"/>
     </clipPath>
     <clipPath id="id6">
      <path d="M-0 0l25400 0 0 25400 -25400 0 0 -25400z"/>
     </clipPath>
     <clipPath id="id7">
      <path d="M3948.56 25400l-3948.56 0 0 -8552.52 3948.56 0 0 8552.52z"/>
     </clipPath>
     <clipPath id="id8">
      <path d="M-0 0l25400 0 0 25400 -25400 0 0 -25400z"/>
     </clipPath>
     <clipPath id="id9">
      <path d="M-0 0l3525.21 0 0 8909.74 -3525.21 0 0 -8909.74z"/>
     </clipPath>
     <clipPath id="id10">
      <path d="M-0 0l25400 0 0 25400 -25400 0 0 -25400z"/>
     </clipPath>
     <clipPath id="id11">
      <path d="M25400 19951.95l0 5448.05 -3667.62 0 0 -5448.05 3667.62 0z"/>
     </clipPath>
     <clipPath id="id12">
      <path d="M-0 0l25400 0 0 25400 -25400 0 0 -25400z"/>
     </clipPath>
     <clipPath id="id13">
      <path d="M5459.78 6773.55c-1409.02,263.35 -2116.11,2439.31 -1826.14,4180.65 143.59,862.3 478.62,1628.36 961.72,2103.32 224.28,220.49 605.76,463.94 1080.21,477.86 374.16,10.98 1197.68,26.06 1541.86,-23.95 730.59,-106.16 1283.83,-874.31 1542.3,-1520.61 808.37,-2021.34 72.84,-5180.26 -1775.81,-5240.38 -341.78,-11.11 -1234.13,-31.1 -1524.14,23.11zm2234.16 57.62c167.64,159.21 758.79,285.22 1179.22,1279.75 556.83,1317.16 599.3,2775.14 -15.23,4083.61 -359.26,764.95 -604.85,926.17 -1227.74,1273.66 229.35,99.26 1868.42,321.7 2245,378.61 382,57.72 769.31,123.8 1148.68,186.82 197.57,32.82 382.97,63.42 577.06,95.02 174.49,28.42 394.15,82.85 490.41,66.15 131.35,-22.79 30.75,4.67 84.91,-30.06 81.06,-101.51 16.34,-6462.95 21.36,-7444.38 4.48,-875.7 276.32,-701.26 -1647.38,-378.69 -477.49,80.06 -2569.34,407.33 -2856.29,489.51zm4602.34 7377.09l2061.78 1.57c247.05,-7.96 305.44,-155.33 431.62,-281.63 542.39,-542.89 458.14,-362.38 457.54,-928.4 -2.43,-2281.06 -29.54,-4628.39 1.77,-6893.21l-2953.8 0.99 1.09 8100.68z"/>
     </clipPath>
      <clipPath id="id14">
       <path d="M5459.78 6773.55c-1409.02,263.35 -2116.11,2439.31 -1826.14,4180.65 143.59,862.3 478.62,1628.36 961.72,2103.32 224.28,220.49 605.76,463.94 1080.21,477.86 374.16,10.98 1197.68,26.06 1541.86,-23.95 730.59,-106.16 1283.83,-874.31 1542.3,-1520.61 808.37,-2021.34 72.84,-5180.26 -1775.81,-5240.38 -341.78,-11.11 -1234.13,-31.1 -1524.14,23.11zm2234.16 57.62c167.64,159.21 758.79,285.22 1179.22,1279.75 556.83,1317.16 599.3,2775.14 -15.23,4083.61 -359.26,764.95 -604.85,926.17 -1227.74,1273.66 229.35,99.26 1868.42,321.7 2245,378.61 382,57.72 769.31,123.8 1148.68,186.82 197.57,32.82 382.97,63.42 577.06,95.02 174.49,28.42 394.15,82.85 490.41,66.15 131.35,-22.79 30.75,4.67 84.91,-30.06 81.06,-101.51 16.34,-6462.95 21.36,-7444.38 4.48,-875.7 276.32,-701.26 -1647.38,-378.69 -477.49,80.06 -2569.34,407.33 -2856.29,489.51zm4602.34 7377.09l2061.78 1.57c247.05,-7.96 305.44,-155.33 431.62,-281.63 542.39,-542.89 458.14,-362.38 457.54,-928.4 -2.43,-2281.06 -29.54,-4628.39 1.77,-6893.21l-2953.8 0.99 1.09 8100.68z"/>
      </clipPath>
      <clipPath id="id15">
       <path d="M5459.78 6773.55c-1409.02,263.35 -2116.11,2439.31 -1826.14,4180.65 143.59,862.3 478.62,1628.36 961.72,2103.32 224.28,220.49 605.76,463.94 1080.21,477.86 374.16,10.98 1197.68,26.06 1541.86,-23.95 730.59,-106.16 1283.83,-874.31 1542.3,-1520.61 808.37,-2021.34 72.84,-5180.26 -1775.81,-5240.38 -341.78,-11.11 -1234.13,-31.1 -1524.14,23.11zm2234.16 57.62c167.64,159.21 758.79,285.22 1179.22,1279.75 556.83,1317.16 599.3,2775.14 -15.23,4083.61 -359.26,764.95 -604.85,926.17 -1227.74,1273.66 229.35,99.26 1868.42,321.7 2245,378.61 382,57.72 769.31,123.8 1148.68,186.82 197.57,32.82 382.97,63.42 577.06,95.02 174.49,28.42 394.15,82.85 490.41,66.15 131.35,-22.79 30.75,4.67 84.91,-30.06 81.06,-101.51 16.34,-6462.95 21.36,-7444.38 4.48,-875.7 276.32,-701.26 -1647.38,-378.69 -477.49,80.06 -2569.34,407.33 -2856.29,489.51zm4602.34 7377.09l2061.78 1.57c247.05,-7.96 305.44,-155.33 431.62,-281.63 542.39,-542.89 458.14,-362.38 457.54,-928.4 -2.43,-2281.06 -29.54,-4628.39 1.77,-6893.21l-2953.8 0.99 1.09 8100.68z"/>
      </clipPath>
     <clipPath id="id16">
      <rect x="11445.61" y="5703.45" width="10254.45" height="7888.03"/>
     </clipPath>
     <clipPath id="id17">
      <path d="M5430.84 12813.4c-379.62,-279.96 -335.71,-166.73 -675.23,-726.73 -174.46,-287.75 -294.06,-655.99 -374.72,-1037.12 -144.15,-681.15 -110.68,-1924.44 304.79,-2362.11 -299.73,1175.79 -287.87,2360.43 407.43,3415.05 119.39,181.07 500.2,656.57 729.89,682.33 529.19,59.35 1102.67,-974.98 1256.47,-1555.13 424.81,-1602.5 -222.29,-3879.31 -1580.42,-3779.98 -1333.31,97.52 -1850.78,2406.87 -1399.71,3881.75 197.31,645.15 660.15,1459.85 1331.5,1481.94z"/>
     </clipPath>
      <clipPath id="id18">
       <path d="M5430.84 12813.4c-379.62,-279.96 -335.71,-166.73 -675.23,-726.73 -174.46,-287.75 -294.06,-655.99 -374.72,-1037.12 -144.15,-681.15 -110.68,-1924.44 304.79,-2362.11 -299.73,1175.79 -287.87,2360.43 407.43,3415.05 119.39,181.07 500.2,656.57 729.89,682.33 529.19,59.35 1102.67,-974.98 1256.47,-1555.13 424.81,-1602.5 -222.29,-3879.31 -1580.42,-3779.98 -1333.31,97.52 -1850.78,2406.87 -1399.71,3881.75 197.31,645.15 660.15,1459.85 1331.5,1481.94z"/>
      </clipPath>
      <clipPath id="id19">
       <path d="M5430.84 12813.4c-379.62,-279.96 -335.71,-166.73 -675.23,-726.73 -174.46,-287.75 -294.06,-655.99 -374.72,-1037.12 -144.15,-681.15 -110.68,-1924.44 304.79,-2362.11 -299.73,1175.79 -287.87,2360.43 407.43,3415.05 119.39,181.07 500.2,656.57 729.89,682.33 529.19,59.35 1102.67,-974.98 1256.47,-1555.13 424.81,-1602.5 -222.29,-3879.31 -1580.42,-3779.98 -1333.31,97.52 -1850.78,2406.87 -1399.71,3881.75 197.31,645.15 660.15,1459.85 1331.5,1481.94z"/>
      </clipPath>
     <clipPath id="id20">
      <path d="M7895.5 6656.92c169.41,28.43 2668.92,-453.67 2820.97,-535.44l7.62 -869.23c-721.88,148.95 -1719.99,519.92 -2488.72,711.44 -447.73,111.54 -424.77,171.43 -339.87,693.23zm2961.49 -533c91.39,-0.11 501.62,-43.5 554.24,-86.95 98.57,-81.41 49.69,-465.9 43.51,-616.45l-598.88 -174.3 1.13 877.7z"/>
     </clipPath>
      <clipPath id="id21">
       <path d="M7895.5 6656.92c169.41,28.43 2668.92,-453.67 2820.97,-535.44l7.62 -869.23c-721.88,148.95 -1719.99,519.92 -2488.72,711.44 -447.73,111.54 -424.77,171.43 -339.87,693.23zm2961.49 -533c91.39,-0.11 501.62,-43.5 554.24,-86.95 98.57,-81.41 49.69,-465.9 43.51,-616.45l-598.88 -174.3 1.13 877.7z"/>
      </clipPath>
      <clipPath id="id22">
       <path d="M7895.5 6656.92c169.41,28.43 2668.92,-453.67 2820.97,-535.44l7.62 -869.23c-721.88,148.95 -1719.99,519.92 -2488.72,711.44 -447.73,111.54 -424.77,171.43 -339.87,693.23zm2961.49 -533c91.39,-0.11 501.62,-43.5 554.24,-86.95 98.57,-81.41 49.69,-465.9 43.51,-616.45l-598.88 -174.3 1.13 877.7z"/>
      </clipPath>
     <clipPath id="id23" style="clip-rule:nonzero">
      <path d="M4776.33 16209.35l1421.51 -12.39 -4.13 429.76c-19.28,159.78 -64.05,305.79 -134.3,438.02 -70.25,132.24 -155.65,240.36 -256.2,324.39 -100.55,84.02 -194.22,150.83 -281,200.42 -86.78,49.58 -175.62,90.91 -266.53,123.96 -352.63,123.97 -698.36,150.15 -1037.21,78.52 -352.63,-71.63 -637.76,-242.43 -855.39,-512.41 -234.16,-289.26 -351.25,-639.13 -351.25,-1049.6 0,-476.6 144.63,-863.66 433.9,-1161.18 258.95,-264.47 582.65,-415.99 971.09,-454.56 363.64,-35.81 698.36,31.68 1004.15,202.49 159.78,88.15 303.72,221.07 431.83,398.76 128.1,177.69 214.19,358.83 258.27,543.4l-851.26 12.4c-22.04,-93.67 -108.82,-181.82 -260.34,-264.47 -104.68,-60.61 -271.35,-79.89 -500.01,-57.85 -187.33,22.04 -337.47,89.53 -450.42,202.48 -129.48,137.75 -194.22,330.59 -194.22,578.53 0,212.12 52.35,385.68 157.03,520.67 88.16,104.68 214.88,179.06 380.17,223.14 338.85,85.4 619.85,23.42 843,-185.95l-247.94 0c-60.61,2.75 -112.95,4.13 -157.03,4.13l-45.46 0 -16.53 0 8.27 -582.66z"/>
     </clipPath>
      <clipPath id="id24">
       <path d="M4776.33 16209.35l1421.51 -12.39 -4.13 429.76c-19.28,159.78 -64.05,305.79 -134.3,438.02 -70.25,132.24 -155.65,240.36 -256.2,324.39 -100.55,84.02 -194.22,150.83 -281,200.42 -86.78,49.58 -175.62,90.91 -266.53,123.96 -352.63,123.97 -698.36,150.15 -1037.21,78.52 -352.63,-71.63 -637.76,-242.43 -855.39,-512.41 -234.16,-289.26 -351.25,-639.13 -351.25,-1049.6 0,-476.6 144.63,-863.66 433.9,-1161.18 258.95,-264.47 582.65,-415.99 971.09,-454.56 363.64,-35.81 698.36,31.68 1004.15,202.49 159.78,88.15 303.72,221.07 431.83,398.76 128.1,177.69 214.19,358.83 258.27,543.4l-851.26 12.4c-22.04,-93.67 -108.82,-181.82 -260.34,-264.47 -104.68,-60.61 -271.35,-79.89 -500.01,-57.85 -187.33,22.04 -337.47,89.53 -450.42,202.48 -129.48,137.75 -194.22,330.59 -194.22,578.53 0,212.12 52.35,385.68 157.03,520.67 88.16,104.68 214.88,179.06 380.17,223.14 338.85,85.4 619.85,23.42 843,-185.95l-247.94 0c-60.61,2.75 -112.95,4.13 -157.03,4.13l-45.46 0 -16.53 0 8.27 -582.66z"/>
      </clipPath>
      <clipPath id="id25">
       <path d="M4776.33 16209.35l1421.51 -12.39 -4.13 429.76c-19.28,159.78 -64.05,305.79 -134.3,438.02 -70.25,132.24 -155.65,240.36 -256.2,324.39 -100.55,84.02 -194.22,150.83 -281,200.42 -86.78,49.58 -175.62,90.91 -266.53,123.96 -352.63,123.97 -698.36,150.15 -1037.21,78.52 -352.63,-71.63 -637.76,-242.43 -855.39,-512.41 -234.16,-289.26 -351.25,-639.13 -351.25,-1049.6 0,-476.6 144.63,-863.66 433.9,-1161.18 258.95,-264.47 582.65,-415.99 971.09,-454.56 363.64,-35.81 698.36,31.68 1004.15,202.49 159.78,88.15 303.72,221.07 431.83,398.76 128.1,177.69 214.19,358.83 258.27,543.4l-851.26 12.4c-22.04,-93.67 -108.82,-181.82 -260.34,-264.47 -104.68,-60.61 -271.35,-79.89 -500.01,-57.85 -187.33,22.04 -337.47,89.53 -450.42,202.48 -129.48,137.75 -194.22,330.59 -194.22,578.53 0,212.12 52.35,385.68 157.03,520.67 88.16,104.68 214.88,179.06 380.17,223.14 338.85,85.4 619.85,23.42 843,-185.95l-247.94 0c-60.61,2.75 -112.95,4.13 -157.03,4.13l-45.46 0 -16.53 0 8.27 -582.66z"/>
      </clipPath>
      <clipPath id="id26">
      </clipPath>
      <clipPath id="id27">
      </clipPath>
      <clipPath id="id28">
      </clipPath>
      <clipPath id="id29">
       <path d="M4776.33 16209.35l1421.51 -12.39 -4.13 429.76c-19.28,159.78 -64.05,305.79 -134.3,438.02 -70.25,132.24 -155.65,240.36 -256.2,324.39 -100.55,84.02 -194.22,150.83 -281,200.42 -86.78,49.58 -175.62,90.91 -266.53,123.96 -352.63,123.97 -698.36,150.15 -1037.21,78.52 -352.63,-71.63 -637.76,-242.43 -855.39,-512.41 -234.16,-289.26 -351.25,-639.13 -351.25,-1049.6 0,-476.6 144.63,-863.66 433.9,-1161.18 258.95,-264.47 582.65,-415.99 971.09,-454.56 363.64,-35.81 698.36,31.68 1004.15,202.49 159.78,88.15 303.72,221.07 431.83,398.76 128.1,177.69 214.19,358.83 258.27,543.4l-851.26 12.4c-22.04,-93.67 -108.82,-181.82 -260.34,-264.47 -104.68,-60.61 -271.35,-79.89 -500.01,-57.85 -187.33,22.04 -337.47,89.53 -450.42,202.48 -129.48,137.75 -194.22,330.59 -194.22,578.53 0,212.12 52.35,385.68 157.03,520.67 88.16,104.68 214.88,179.06 380.17,223.14 338.85,85.4 619.85,23.42 843,-185.95l-247.94 0c-60.61,2.75 -112.95,4.13 -157.03,4.13l-45.46 0 -16.53 0 8.27 -582.66z"/>
      </clipPath>
     <clipPath id="id30" style="clip-rule:nonzero">
      <path d="M7423.36 15374.63l0 727.28c187.33,0 337.47,-8.26 450.42,-24.79 184.58,-30.3 319.56,-77.14 404.97,-140.5 71.62,-52.34 106.06,-133.61 103.3,-243.8 0,-85.41 -41.32,-150.15 -123.97,-194.22 -112.95,-63.37 -300.28,-103.31 -561.99,-119.84 -57.85,-2.76 -148.76,-4.13 -272.73,-4.13zm-458.69 -752.08c46.83,-2.76 78.52,-5.51 95.04,-8.27 283.76,-13.77 509.66,-15.15 677.7,-4.13 363.65,16.53 657.04,84.02 880.19,202.48 352.62,187.33 531.69,477.97 537.2,871.92 5.51,369.15 -130.86,658.42 -409.1,867.79 -63.37,49.58 -148.77,99.17 -256.21,148.76l760.35 1057.87 -1074.4 -16.53 -549.6 -867.78 -33.06 0 -165.29 0 0 888.44 -801.67 16.53 -49.59 -3148.82c170.81,-5.51 297.53,-8.26 380.18,-8.26l8.26 0z"/>
     </clipPath>
      <clipPath id="id31">
       <path d="M7423.36 15374.63l0 727.28c187.33,0 337.47,-8.26 450.42,-24.79 184.58,-30.3 319.56,-77.14 404.97,-140.5 71.62,-52.34 106.06,-133.61 103.3,-243.8 0,-85.41 -41.32,-150.15 -123.97,-194.22 -112.95,-63.37 -300.28,-103.31 -561.99,-119.84 -57.85,-2.76 -148.76,-4.13 -272.73,-4.13zm-458.69 -752.08c46.83,-2.76 78.52,-5.51 95.04,-8.27 283.76,-13.77 509.66,-15.15 677.7,-4.13 363.65,16.53 657.04,84.02 880.19,202.48 352.62,187.33 531.69,477.97 537.2,871.92 5.51,369.15 -130.86,658.42 -409.1,867.79 -63.37,49.58 -148.77,99.17 -256.21,148.76l760.35 1057.87 -1074.4 -16.53 -549.6 -867.78 -33.06 0 -165.29 0 0 888.44 -801.67 16.53 -49.59 -3148.82c170.81,-5.51 297.53,-8.26 380.18,-8.26l8.26 0z"/>
      </clipPath>
      <clipPath id="id32">
       <path d="M7423.36 15374.63l0 727.28c187.33,0 337.47,-8.26 450.42,-24.79 184.58,-30.3 319.56,-77.14 404.97,-140.5 71.62,-52.34 106.06,-133.61 103.3,-243.8 0,-85.41 -41.32,-150.15 -123.97,-194.22 -112.95,-63.37 -300.28,-103.31 -561.99,-119.84 -57.85,-2.76 -148.76,-4.13 -272.73,-4.13zm-458.69 -752.08c46.83,-2.76 78.52,-5.51 95.04,-8.27 283.76,-13.77 509.66,-15.15 677.7,-4.13 363.65,16.53 657.04,84.02 880.19,202.48 352.62,187.33 531.69,477.97 537.2,871.92 5.51,369.15 -130.86,658.42 -409.1,867.79 -63.37,49.58 -148.77,99.17 -256.21,148.76l760.35 1057.87 -1074.4 -16.53 -549.6 -867.78 -33.06 0 -165.29 0 0 888.44 -801.67 16.53 -49.59 -3148.82c170.81,-5.51 297.53,-8.26 380.18,-8.26l8.26 0z"/>
      </clipPath>
      <clipPath id="id33">
      </clipPath>
      <clipPath id="id34">
      </clipPath>
      <clipPath id="id35">
      </clipPath>
      <clipPath id="id36">
       <path d="M7423.36 15374.63l0 727.28c187.33,0 337.47,-8.26 450.42,-24.79 184.58,-30.3 319.56,-77.14 404.97,-140.5 71.62,-52.34 106.06,-133.61 103.3,-243.8 0,-85.41 -41.32,-150.15 -123.97,-194.22 -112.95,-63.37 -300.28,-103.31 -561.99,-119.84 -57.85,-2.76 -148.76,-4.13 -272.73,-4.13zm-458.69 -752.08c46.83,-2.76 78.52,-5.51 95.04,-8.27 283.76,-13.77 509.66,-15.15 677.7,-4.13 363.65,16.53 657.04,84.02 880.19,202.48 352.62,187.33 531.69,477.97 537.2,871.92 5.51,369.15 -130.86,658.42 -409.1,867.79 -63.37,49.58 -148.77,99.17 -256.21,148.76l760.35 1057.87 -1074.4 -16.53 -549.6 -867.78 -33.06 0 -165.29 0 0 888.44 -801.67 16.53 -49.59 -3148.82c170.81,-5.51 297.53,-8.26 380.18,-8.26l8.26 0z"/>
      </clipPath>
     <clipPath id="id37" style="clip-rule:nonzero">
      <path d="M10161.3 14601.89l173.56 0c143.25,0 356.76,-0.69 640.51,-2.07 283.75,-1.38 497.25,-2.07 640.51,-2.07l-4.14 855.39 -20.66 0c-5.51,0 -13.08,0.69 -22.73,2.07 -9.64,1.37 -19.97,2.06 -30.99,2.06l-194.22 0c-176.31,0 -371.91,1.38 -586.79,4.14l-417.36 0 0 309.92c71.63,0 150.14,-0.69 235.54,-2.07 85.4,-1.37 177.69,-2.06 276.87,-2.06l516.54 0 169.42 0 49.59 0 16.53 0 4.13 859.52 -16.53 0 -49.59 0 -169.42 0 -520.67 0 -508.28 0 0 276.86c27.55,0 79.89,0.69 157.03,2.07 77.14,1.38 158.41,2.06 243.81,2.06 217.63,0 417.36,1.38 599.18,4.14l198.35 0 53.72 0 20.67 0 -8.27 859.52 -16.53 0 -57.85 0 -194.22 0c-181.82,-2.76 -381.55,-4.14 -599.18,-4.14l-599.19 -4.13 -12.4 0 -640.5 0 0 -33.06 0 -103.3c-2.76,-99.18 -4.14,-217.64 -4.14,-355.38l0 -1086.8c-2.75,-396.7 -4.13,-758.97 -4.13,-1086.8l0 -359.51 0 -99.17 0 -37.19 421.5 0 260.33 0z"/>
     </clipPath>
      <clipPath id="id38">
       <path d="M10161.3 14601.89l173.56 0c143.25,0 356.76,-0.69 640.51,-2.07 283.75,-1.38 497.25,-2.07 640.51,-2.07l-4.14 855.39 -20.66 0c-5.51,0 -13.08,0.69 -22.73,2.07 -9.64,1.37 -19.97,2.06 -30.99,2.06l-194.22 0c-176.31,0 -371.91,1.38 -586.79,4.14l-417.36 0 0 309.92c71.63,0 150.14,-0.69 235.54,-2.07 85.4,-1.37 177.69,-2.06 276.87,-2.06l516.54 0 169.42 0 49.59 0 16.53 0 4.13 859.52 -16.53 0 -49.59 0 -169.42 0 -520.67 0 -508.28 0 0 276.86c27.55,0 79.89,0.69 157.03,2.07 77.14,1.38 158.41,2.06 243.81,2.06 217.63,0 417.36,1.38 599.18,4.14l198.35 0 53.72 0 20.67 0 -8.27 859.52 -16.53 0 -57.85 0 -194.22 0c-181.82,-2.76 -381.55,-4.14 -599.18,-4.14l-599.19 -4.13 -12.4 0 -640.5 0 0 -33.06 0 -103.3c-2.76,-99.18 -4.14,-217.64 -4.14,-355.38l0 -1086.8c-2.75,-396.7 -4.13,-758.97 -4.13,-1086.8l0 -359.51 0 -99.17 0 -37.19 421.5 0 260.33 0z"/>
      </clipPath>
      <clipPath id="id39">
       <path d="M10161.3 14601.89l173.56 0c143.25,0 356.76,-0.69 640.51,-2.07 283.75,-1.38 497.25,-2.07 640.51,-2.07l-4.14 855.39 -20.66 0c-5.51,0 -13.08,0.69 -22.73,2.07 -9.64,1.37 -19.97,2.06 -30.99,2.06l-194.22 0c-176.31,0 -371.91,1.38 -586.79,4.14l-417.36 0 0 309.92c71.63,0 150.14,-0.69 235.54,-2.07 85.4,-1.37 177.69,-2.06 276.87,-2.06l516.54 0 169.42 0 49.59 0 16.53 0 4.13 859.52 -16.53 0 -49.59 0 -169.42 0 -520.67 0 -508.28 0 0 276.86c27.55,0 79.89,0.69 157.03,2.07 77.14,1.38 158.41,2.06 243.81,2.06 217.63,0 417.36,1.38 599.18,4.14l198.35 0 53.72 0 20.67 0 -8.27 859.52 -16.53 0 -57.85 0 -194.22 0c-181.82,-2.76 -381.55,-4.14 -599.18,-4.14l-599.19 -4.13 -12.4 0 -640.5 0 0 -33.06 0 -103.3c-2.76,-99.18 -4.14,-217.64 -4.14,-355.38l0 -1086.8c-2.75,-396.7 -4.13,-758.97 -4.13,-1086.8l0 -359.51 0 -99.17 0 -37.19 421.5 0 260.33 0z"/>
      </clipPath>
      <clipPath id="id40">
      </clipPath>
      <clipPath id="id41">
      </clipPath>
      <clipPath id="id42">
      </clipPath>
      <clipPath id="id43">
       <path d="M10161.3 14601.89l173.56 0c143.25,0 356.76,-0.69 640.51,-2.07 283.75,-1.38 497.25,-2.07 640.51,-2.07l-4.14 855.39 -20.66 0c-5.51,0 -13.08,0.69 -22.73,2.07 -9.64,1.37 -19.97,2.06 -30.99,2.06l-194.22 0c-176.31,0 -371.91,1.38 -586.79,4.14l-417.36 0 0 309.92c71.63,0 150.14,-0.69 235.54,-2.07 85.4,-1.37 177.69,-2.06 276.87,-2.06l516.54 0 169.42 0 49.59 0 16.53 0 4.13 859.52 -16.53 0 -49.59 0 -169.42 0 -520.67 0 -508.28 0 0 276.86c27.55,0 79.89,0.69 157.03,2.07 77.14,1.38 158.41,2.06 243.81,2.06 217.63,0 417.36,1.38 599.18,4.14l198.35 0 53.72 0 20.67 0 -8.27 859.52 -16.53 0 -57.85 0 -194.22 0c-181.82,-2.76 -381.55,-4.14 -599.18,-4.14l-599.19 -4.13 -12.4 0 -640.5 0 0 -33.06 0 -103.3c-2.76,-99.18 -4.14,-217.64 -4.14,-355.38l0 -1086.8c-2.75,-396.7 -4.13,-758.97 -4.13,-1086.8l0 -359.51 0 -99.17 0 -37.19 421.5 0 260.33 0z"/>
      </clipPath>
     <clipPath id="id44" style="clip-rule:nonzero">
      <path d="M13448.84 16696.97l-132.24 -367.78 -185.95 -537.2 -148.76 516.54 -111.58 380.17c74.39,2.76 199.73,4.13 376.04,4.13 33.06,0 71.63,0.69 115.71,2.07 44.08,1.38 73,2.07 86.78,2.07zm177.69 -2082.69c60.6,176.31 112.95,326.45 157.02,450.42 101.93,297.53 216.26,623.98 342.99,979.36 123.97,358.13 236.92,684.59 338.85,979.36 44.07,126.72 82.64,234.16 115.7,322.32l152.9 417.36 -909.11 4.13c-8.27,-13.77 -15.15,-28.92 -20.66,-45.45 -8.27,-24.79 -17.91,-55.1 -28.93,-90.91l-37.19 -107.44 -495.88 -4.13c-190.08,0 -363.64,-1.38 -520.67,-4.14l-90.91 0 -37.19 132.24c-11.02,38.57 -20.66,70.25 -28.93,95.04l-8.26 33.06 -896.71 -20.66c52.34,-148.77 81.27,-232.79 86.78,-252.07 5.51,-24.8 13.77,-56.48 24.79,-95.05 27.55,-90.91 60.61,-201.1 99.17,-330.58l289.27 -1008.28c107.44,-366.4 205.23,-702.5 293.39,-1008.29l132.23 -446.29 20.67 0 0 -4.13 1020.68 4.13z"/>
     </clipPath>
      <clipPath id="id45">
       <path d="M13448.84 16696.97l-132.24 -367.78 -185.95 -537.2 -148.76 516.54 -111.58 380.17c74.39,2.76 199.73,4.13 376.04,4.13 33.06,0 71.63,0.69 115.71,2.07 44.08,1.38 73,2.07 86.78,2.07zm177.69 -2082.69c60.6,176.31 112.95,326.45 157.02,450.42 101.93,297.53 216.26,623.98 342.99,979.36 123.97,358.13 236.92,684.59 338.85,979.36 44.07,126.72 82.64,234.16 115.7,322.32l152.9 417.36 -909.11 4.13c-8.27,-13.77 -15.15,-28.92 -20.66,-45.45 -8.27,-24.79 -17.91,-55.1 -28.93,-90.91l-37.19 -107.44 -495.88 -4.13c-190.08,0 -363.64,-1.38 -520.67,-4.14l-90.91 0 -37.19 132.24c-11.02,38.57 -20.66,70.25 -28.93,95.04l-8.26 33.06 -896.71 -20.66c52.34,-148.77 81.27,-232.79 86.78,-252.07 5.51,-24.8 13.77,-56.48 24.79,-95.05 27.55,-90.91 60.61,-201.1 99.17,-330.58l289.27 -1008.28c107.44,-366.4 205.23,-702.5 293.39,-1008.29l132.23 -446.29 20.67 0 0 -4.13 1020.68 4.13z"/>
      </clipPath>
      <clipPath id="id46">
       <path d="M13448.84 16696.97l-132.24 -367.78 -185.95 -537.2 -148.76 516.54 -111.58 380.17c74.39,2.76 199.73,4.13 376.04,4.13 33.06,0 71.63,0.69 115.71,2.07 44.08,1.38 73,2.07 86.78,2.07zm177.69 -2082.69c60.6,176.31 112.95,326.45 157.02,450.42 101.93,297.53 216.26,623.98 342.99,979.36 123.97,358.13 236.92,684.59 338.85,979.36 44.07,126.72 82.64,234.16 115.7,322.32l152.9 417.36 -909.11 4.13c-8.27,-13.77 -15.15,-28.92 -20.66,-45.45 -8.27,-24.79 -17.91,-55.1 -28.93,-90.91l-37.19 -107.44 -495.88 -4.13c-190.08,0 -363.64,-1.38 -520.67,-4.14l-90.91 0 -37.19 132.24c-11.02,38.57 -20.66,70.25 -28.93,95.04l-8.26 33.06 -896.71 -20.66c52.34,-148.77 81.27,-232.79 86.78,-252.07 5.51,-24.8 13.77,-56.48 24.79,-95.05 27.55,-90.91 60.61,-201.1 99.17,-330.58l289.27 -1008.28c107.44,-366.4 205.23,-702.5 293.39,-1008.29l132.23 -446.29 20.67 0 0 -4.13 1020.68 4.13z"/>
      </clipPath>
      <clipPath id="id47">
      </clipPath>
      <clipPath id="id48">
      </clipPath>
      <clipPath id="id49">
      </clipPath>
      <clipPath id="id50">
       <path d="M13448.84 16696.97l-132.24 -367.78 -185.95 -537.2 -148.76 516.54 -111.58 380.17c74.39,2.76 199.73,4.13 376.04,4.13 33.06,0 71.63,0.69 115.71,2.07 44.08,1.38 73,2.07 86.78,2.07zm177.69 -2082.69c60.6,176.31 112.95,326.45 157.02,450.42 101.93,297.53 216.26,623.98 342.99,979.36 123.97,358.13 236.92,684.59 338.85,979.36 44.07,126.72 82.64,234.16 115.7,322.32l152.9 417.36 -909.11 4.13c-8.27,-13.77 -15.15,-28.92 -20.66,-45.45 -8.27,-24.79 -17.91,-55.1 -28.93,-90.91l-37.19 -107.44 -495.88 -4.13c-190.08,0 -363.64,-1.38 -520.67,-4.14l-90.91 0 -37.19 132.24c-11.02,38.57 -20.66,70.25 -28.93,95.04l-8.26 33.06 -896.71 -20.66c52.34,-148.77 81.27,-232.79 86.78,-252.07 5.51,-24.8 13.77,-56.48 24.79,-95.05 27.55,-90.91 60.61,-201.1 99.17,-330.58l289.27 -1008.28c107.44,-366.4 205.23,-702.5 293.39,-1008.29l132.23 -446.29 20.67 0 0 -4.13 1020.68 4.13z"/>
      </clipPath>
     <clipPath id="id51" style="clip-rule:nonzero">
      <path d="M14385.09 14618.41l24.79 0 74.38 0 256.21 0 789.27 0c286.5,-2.75 549.59,-4.13 789.27,-4.13l260.33 0 70.25 0 24.8 0 4.13 834.73 -28.93 0 -70.25 0 -260.33 0 -404.97 0 0 938.03 0 950.43 0 309.93 0 90.91 0 28.92 -830.59 0 0 -28.92 0 -86.78c0,-88.16 -1.38,-192.84 -4.13,-314.06l0 -950.43 0 -938.03 -334.72 0c-101.93,0 -188.71,1.38 -260.34,4.13l-74.38 0 -24.79 0 0 -834.73z"/>
     </clipPath>
      <clipPath id="id52">
       <path d="M14385.09 14618.41l24.79 0 74.38 0 256.21 0 789.27 0c286.5,-2.75 549.59,-4.13 789.27,-4.13l260.33 0 70.25 0 24.8 0 4.13 834.73 -28.93 0 -70.25 0 -260.33 0 -404.97 0 0 938.03 0 950.43 0 309.93 0 90.91 0 28.92 -830.59 0 0 -28.92 0 -86.78c0,-88.16 -1.38,-192.84 -4.13,-314.06l0 -950.43 0 -938.03 -334.72 0c-101.93,0 -188.71,1.38 -260.34,4.13l-74.38 0 -24.79 0 0 -834.73z"/>
      </clipPath>
      <clipPath id="id53">
       <path d="M14385.09 14618.41l24.79 0 74.38 0 256.21 0 789.27 0c286.5,-2.75 549.59,-4.13 789.27,-4.13l260.33 0 70.25 0 24.8 0 4.13 834.73 -28.93 0 -70.25 0 -260.33 0 -404.97 0 0 938.03 0 950.43 0 309.93 0 90.91 0 28.92 -830.59 0 0 -28.92 0 -86.78c0,-88.16 -1.38,-192.84 -4.13,-314.06l0 -950.43 0 -938.03 -334.72 0c-101.93,0 -188.71,1.38 -260.34,4.13l-74.38 0 -24.79 0 0 -834.73z"/>
      </clipPath>
      <clipPath id="id54">
       <path d="M15102.09 14618.41l427.65 0c286.5,-2.75 549.59,-4.13 789.27,-4.13l260.33 0 70.25 0 24.8 0 4.13 834.73 -28.93 0 -70.25 0 -260.33 0 -404.97 0 0 938.03 0 950.43 0 309.93 0 90.91 0 28.92 -811.95 0 0 -3148.82z"/>
      </clipPath>
      <clipPath id="id55">
       <path d="M15102.09 14618.41l0 3148.82 811.95 0 0 -28.92 0 -90.91 0 -309.93 0 -950.43 0 -938.03 404.97 0 260.33 0 70.25 0 28.93 0 -4.13 -834.73 -24.8 0 -70.25 0 -260.33 0c-239.68,0 -502.77,1.38 -789.27,4.13l-427.65 0z"/>
      </clipPath>
      <clipPath id="id56">
       <path d="M15102.09 14618.41l427.65 0c286.5,-2.75 549.59,-4.13 789.27,-4.13l260.33 0 70.25 0 24.8 0 4.13 834.73 -28.93 0 -70.25 0 -260.33 0 -404.97 0 0 938.03 0 950.43 0 309.93 0 90.91 0 28.92 -811.95 0 0 -3148.82z"/>
      </clipPath>
      <clipPath id="id57">
       <path d="M14385.09 14618.41l24.79 0 74.38 0 256.21 0 789.27 0c286.5,-2.75 549.59,-4.13 789.27,-4.13l260.33 0 70.25 0 24.8 0 4.13 834.73 -28.93 0 -70.25 0 -260.33 0 -404.97 0 0 938.03 0 950.43 0 309.93 0 90.91 0 28.92 -830.59 0 0 -28.92 0 -86.78c0,-88.16 -1.38,-192.84 -4.13,-314.06l0 -950.43 0 -938.03 -334.72 0c-101.93,0 -188.71,1.38 -260.34,4.13l-74.38 0 -24.79 0 0 -834.73z"/>
      </clipPath>
     <clipPath id="id58" style="clip-rule:nonzero">
      <path d="M17354.44 14610.15l16.53 0 1495.9 0 -4.14 582.66c-118.46,0 -294.77,0.68 -528.93,2.06 -234.17,1.38 -410.48,3.45 -528.94,6.2 -2.75,187.33 -4.13,389.81 -4.13,607.45l185.95 0 487.62 0c63.36,0 117.08,1.38 161.16,4.13l41.32 0 16.53 0 0 607.45 -16.53 0 -45.46 0c-44.07,-2.75 -97.79,-4.13 -161.16,-4.13l-483.48 0 -190.08 0c-2.76,143.25 -4.82,296.84 -6.2,460.75 -1.38,163.92 -2.07,296.84 -2.07,398.77 -2.75,140.5 -4.13,258.96 -4.13,355.38l0 103.31 0 33.05 -859.52 -8.26 0 -33.06 0 -99.17c0,-99.18 1.38,-217.64 4.13,-355.38 2.76,-327.83 5.51,-688.72 8.27,-1082.67 2.75,-393.94 5.51,-753.46 8.26,-1078.53 2.76,-140.5 4.13,-260.34 4.13,-359.51l4.14 -140.5c176.31,0 309.92,1.38 400.83,4.13l0 -4.13z"/>
     </clipPath>
      <clipPath id="id59">
       <path d="M17354.44 14610.15l16.53 0 1495.9 0 -4.14 582.66c-118.46,0 -294.77,0.68 -528.93,2.06 -234.17,1.38 -410.48,3.45 -528.94,6.2 -2.75,187.33 -4.13,389.81 -4.13,607.45l185.95 0 487.62 0c63.36,0 117.08,1.38 161.16,4.13l41.32 0 16.53 0 0 607.45 -16.53 0 -45.46 0c-44.07,-2.75 -97.79,-4.13 -161.16,-4.13l-483.48 0 -190.08 0c-2.76,143.25 -4.82,296.84 -6.2,460.75 -1.38,163.92 -2.07,296.84 -2.07,398.77 -2.75,140.5 -4.13,258.96 -4.13,355.38l0 103.31 0 33.05 -859.52 -8.26 0 -33.06 0 -99.17c0,-99.18 1.38,-217.64 4.13,-355.38 2.76,-327.83 5.51,-688.72 8.27,-1082.67 2.75,-393.94 5.51,-753.46 8.26,-1078.53 2.76,-140.5 4.13,-260.34 4.13,-359.51l4.14 -140.5c176.31,0 309.92,1.38 400.83,4.13l0 -4.13z"/>
      </clipPath>
      <clipPath id="id60">
       <path d="M17354.44 14610.15l16.53 0 1495.9 0 -4.14 582.66c-118.46,0 -294.77,0.68 -528.93,2.06 -234.17,1.38 -410.48,3.45 -528.94,6.2 -2.75,187.33 -4.13,389.81 -4.13,607.45l185.95 0 487.62 0c63.36,0 117.08,1.38 161.16,4.13l41.32 0 16.53 0 0 607.45 -16.53 0 -45.46 0c-44.07,-2.75 -97.79,-4.13 -161.16,-4.13l-483.48 0 -190.08 0c-2.76,143.25 -4.82,296.84 -6.2,460.75 -1.38,163.92 -2.07,296.84 -2.07,398.77 -2.75,140.5 -4.13,258.96 -4.13,355.38l0 103.31 0 33.05 -859.52 -8.26 0 -33.06 0 -99.17c0,-99.18 1.38,-217.64 4.13,-355.38 2.76,-327.83 5.51,-688.72 8.27,-1082.67 2.75,-393.94 5.51,-753.46 8.26,-1078.53 2.76,-140.5 4.13,-260.34 4.13,-359.51l4.14 -140.5c176.31,0 309.92,1.38 400.83,4.13l0 -4.13z"/>
      </clipPath>
      <clipPath id="id61">
       <path d="M17354.44 14610.15l16.53 0 1495.9 0 -4.14 582.66c-118.46,0 -294.77,0.68 -528.93,2.06 -234.17,1.38 -410.48,3.45 -528.94,6.2 -2.75,187.33 -4.13,389.81 -4.13,607.45l185.95 0 487.62 0c63.36,0 117.08,1.38 161.16,4.13l41.32 0 16.53 0 0 607.45 -16.53 0 -45.46 0c-44.07,-2.75 -97.79,-4.13 -161.16,-4.13l-483.48 0 -190.08 0c-2.76,143.25 -4.82,296.84 -6.2,460.75 -1.38,163.92 -2.07,296.84 -2.07,398.77 -2.75,140.5 -4.13,258.96 -4.13,355.38l0 103.31 0 33.05 -859.52 -8.26 0 -33.06 0 -99.17c0,-99.18 1.38,-217.64 4.13,-355.38 2.76,-327.83 5.51,-688.72 8.27,-1082.67 2.75,-393.94 5.51,-753.46 8.26,-1078.53 2.76,-140.5 4.13,-260.34 4.13,-359.51l4.14 -140.5c176.31,0 309.92,1.38 400.83,4.13l0 -4.13z"/>
      </clipPath>
      <clipPath id="id62">
       <path d="M17354.44 14610.15l16.53 0 1495.9 0 -4.14 582.66c-118.46,0 -294.77,0.68 -528.93,2.06 -234.17,1.38 -410.48,3.45 -528.94,6.2 -2.75,187.33 -4.13,389.81 -4.13,607.45l185.95 0 487.62 0c63.36,0 117.08,1.38 161.16,4.13l41.32 0 16.53 0 0 607.45 -16.53 0 -45.46 0c-44.07,-2.75 -97.79,-4.13 -161.16,-4.13l-483.48 0 -190.08 0c-2.76,143.25 -4.82,296.84 -6.2,460.75 -1.38,163.92 -2.07,296.84 -2.07,398.77 -2.75,140.5 -4.13,258.96 -4.13,355.38l0 103.31 0 33.05 -859.52 -8.26 0 -33.06 0 -99.17c0,-99.18 1.38,-217.64 4.13,-355.38 2.76,-327.83 5.51,-688.72 8.27,-1082.67 2.75,-393.94 5.51,-753.46 8.26,-1078.53 2.76,-140.5 4.13,-260.34 4.13,-359.51l4.14 -140.5c176.31,0 309.92,1.38 400.83,4.13l0 -4.13z"/>
      </clipPath>
      <clipPath id="id63">
       <path d="M17354.44 14610.15l16.53 0 1495.9 0 -4.14 582.66c-118.46,0 -294.77,0.68 -528.93,2.06 -234.17,1.38 -410.48,3.45 -528.94,6.2 -2.75,187.33 -4.13,389.81 -4.13,607.45l185.95 0 487.62 0c63.36,0 117.08,1.38 161.16,4.13l41.32 0 16.53 0 0 607.45 -16.53 0 -45.46 0c-44.07,-2.75 -97.79,-4.13 -161.16,-4.13l-483.48 0 -190.08 0c-2.76,143.25 -4.82,296.84 -6.2,460.75 -1.38,163.92 -2.07,296.84 -2.07,398.77 -2.75,140.5 -4.13,258.96 -4.13,355.38l0 103.31 0 33.05 -859.52 -8.26 0 -33.06 0 -99.17c0,-99.18 1.38,-217.64 4.13,-355.38 2.76,-327.83 5.51,-688.72 8.27,-1082.67 2.75,-393.94 5.51,-753.46 8.26,-1078.53 2.76,-140.5 4.13,-260.34 4.13,-359.51l4.14 -140.5c176.31,0 309.92,1.38 400.83,4.13l0 -4.13z"/>
      </clipPath>
      <clipPath id="id64">
       <path d="M17354.44 14610.15l16.53 0 1495.9 0 -4.14 582.66c-118.46,0 -294.77,0.68 -528.93,2.06 -234.17,1.38 -410.48,3.45 -528.94,6.2 -2.75,187.33 -4.13,389.81 -4.13,607.45l185.95 0 487.62 0c63.36,0 117.08,1.38 161.16,4.13l41.32 0 16.53 0 0 607.45 -16.53 0 -45.46 0c-44.07,-2.75 -97.79,-4.13 -161.16,-4.13l-483.48 0 -190.08 0c-2.76,143.25 -4.82,296.84 -6.2,460.75 -1.38,163.92 -2.07,296.84 -2.07,398.77 -2.75,140.5 -4.13,258.96 -4.13,355.38l0 103.31 0 33.05 -859.52 -8.26 0 -33.06 0 -99.17c0,-99.18 1.38,-217.64 4.13,-355.38 2.76,-327.83 5.51,-688.72 8.27,-1082.67 2.75,-393.94 5.51,-753.46 8.26,-1078.53 2.76,-140.5 4.13,-260.34 4.13,-359.51l4.14 -140.5c176.31,0 309.92,1.38 400.83,4.13l0 -4.13z"/>
      </clipPath>
     <clipPath id="id65" style="clip-rule:nonzero">
      <path d="M20009.74 14610.15l0 37.19 0 99.18 0 359.51 0 1082.66c0,393.95 -1.38,756.21 -4.13,1086.8l0 355.38 0 103.31 0 33.05 -826.47 0 0 -37.19 0 -99.17 0 -355.38c2.76,-330.59 4.14,-692.85 4.14,-1086.8l0 -1086.8 0 -355.37 0 -99.18 0 -37.19 826.46 0z"/>
     </clipPath>
      <clipPath id="id66">
       <path d="M20009.74 14610.15l0 37.19 0 99.18 0 359.51 0 1082.66c0,393.95 -1.38,756.21 -4.13,1086.8l0 355.38 0 103.31 0 33.05 -826.47 0 0 -37.19 0 -99.17 0 -355.38c2.76,-330.59 4.14,-692.85 4.14,-1086.8l0 -1086.8 0 -355.37 0 -99.18 0 -37.19 826.46 0z"/>
      </clipPath>
      <clipPath id="id67">
       <path d="M20009.74 14610.15l0 37.19 0 99.18 0 359.51 0 1082.66c0,393.95 -1.38,756.21 -4.13,1086.8l0 355.38 0 103.31 0 33.05 -826.47 0 0 -37.19 0 -99.17 0 -355.38c2.76,-330.59 4.14,-692.85 4.14,-1086.8l0 -1086.8 0 -355.37 0 -99.18 0 -37.19 826.46 0z"/>
      </clipPath>
      <clipPath id="id68">
       <path d="M20009.74 14610.15l0 37.19 0 99.18 0 359.51 0 1082.66c0,393.95 -1.38,756.21 -4.13,1086.8l0 355.38 0 103.31 0 33.05 -826.47 0 0 -37.19 0 -99.17 0 -355.38c2.76,-330.59 4.14,-692.85 4.14,-1086.8l0 -1086.8 0 -355.37 0 -99.18 0 -37.19 826.46 0z"/>
      </clipPath>
      <clipPath id="id69">
       <path d="M20009.74 14610.15l0 37.19 0 99.18 0 359.51 0 1082.66c0,393.95 -1.38,756.21 -4.13,1086.8l0 355.38 0 103.31 0 33.05 -826.47 0 0 -37.19 0 -99.17 0 -355.38c2.76,-330.59 4.14,-692.85 4.14,-1086.8l0 -1086.8 0 -355.37 0 -99.18 0 -37.19 826.46 0z"/>
      </clipPath>
      <clipPath id="id70">
       <path d="M20009.74 14610.15l0 37.19 0 99.18 0 359.51 0 1082.66c0,393.95 -1.38,756.21 -4.13,1086.8l0 355.38 0 103.31 0 33.05 -826.47 0 0 -37.19 0 -99.17 0 -355.38c2.76,-330.59 4.14,-692.85 4.14,-1086.8l0 -1086.8 0 -355.37 0 -99.18 0 -37.19 826.46 0z"/>
      </clipPath>
      <clipPath id="id71">
       <path d="M20009.74 14610.15l0 37.19 0 99.18 0 359.51 0 1082.66c0,393.95 -1.38,756.21 -4.13,1086.8l0 355.38 0 103.31 0 33.05 -826.47 0 0 -37.19 0 -99.17 0 -355.38c2.76,-330.59 4.14,-692.85 4.14,-1086.8l0 -1086.8 0 -355.37 0 -99.18 0 -37.19 826.46 0z"/>
      </clipPath>
     <clipPath id="id72" style="clip-rule:nonzero">
      <path d="M20094.74 14618.41l24.79 0 74.38 0 256.21 0 789.27 0c286.5,-2.75 549.59,-4.13 789.27,-4.13l260.33 0 70.25 0 24.8 0 4.13 834.73 -28.93 0 -70.25 0 -260.33 0 -404.97 0 0 938.03 0 950.43 0 309.93 0 90.91 0 28.92 -830.59 0 0 -28.92 0 -86.78c0,-88.16 -1.38,-192.84 -4.13,-314.06l0 -950.43 0 -938.03 -334.72 0c-101.93,0 -188.71,1.38 -260.34,4.13l-74.38 0 -24.79 0 0 -834.73z"/>
     </clipPath>
      <clipPath id="id73">
       <path d="M20094.74 14618.41l24.79 0 74.38 0 256.21 0 789.27 0c286.5,-2.75 549.59,-4.13 789.27,-4.13l260.33 0 70.25 0 24.8 0 4.13 834.73 -28.93 0 -70.25 0 -260.33 0 -404.97 0 0 938.03 0 950.43 0 309.93 0 90.91 0 28.92 -830.59 0 0 -28.92 0 -86.78c0,-88.16 -1.38,-192.84 -4.13,-314.06l0 -950.43 0 -938.03 -334.72 0c-101.93,0 -188.71,1.38 -260.34,4.13l-74.38 0 -24.79 0 0 -834.73z"/>
      </clipPath>
      <clipPath id="id74">
       <path d="M20094.74 14618.41l24.79 0 74.38 0 256.21 0 789.27 0c286.5,-2.75 549.59,-4.13 789.27,-4.13l260.33 0 70.25 0 24.8 0 4.13 834.73 -28.93 0 -70.25 0 -260.33 0 -404.97 0 0 938.03 0 950.43 0 309.93 0 90.91 0 28.92 -830.59 0 0 -28.92 0 -86.78c0,-88.16 -1.38,-192.84 -4.13,-314.06l0 -950.43 0 -938.03 -334.72 0c-101.93,0 -188.71,1.38 -260.34,4.13l-74.38 0 -24.79 0 0 -834.73z"/>
      </clipPath>
      <clipPath id="id75">
       <path d="M20094.74 14618.41l24.79 0 74.38 0 256.21 0 789.27 0c286.5,-2.75 549.59,-4.13 789.27,-4.13l260.33 0 70.25 0 24.8 0 4.13 834.73 -28.93 0 -70.25 0 -260.33 0 -404.97 0 0 938.03 0 950.43 0 309.93 0 90.91 0 28.92 -830.59 0 0 -28.92 0 -86.78c0,-88.16 -1.38,-192.84 -4.13,-314.06l0 -950.43 0 -938.03 -334.72 0c-101.93,0 -188.71,1.38 -260.34,4.13l-74.38 0 -24.79 0 0 -834.73z"/>
      </clipPath>
      <clipPath id="id76">
       <path d="M20094.74 14618.41l24.79 0 74.38 0 256.21 0 789.27 0c286.5,-2.75 549.59,-4.13 789.27,-4.13l260.33 0 70.25 0 24.8 0 4.13 834.73 -28.93 0 -70.25 0 -260.33 0 -404.97 0 0 938.03 0 950.43 0 309.93 0 90.91 0 28.92 -830.59 0 0 -28.92 0 -86.78c0,-88.16 -1.38,-192.84 -4.13,-314.06l0 -950.43 0 -938.03 -334.72 0c-101.93,0 -188.71,1.38 -260.34,4.13l-74.38 0 -24.79 0 0 -834.73z"/>
      </clipPath>
      <clipPath id="id77">
       <path d="M20094.74 14618.41l24.79 0 74.38 0 256.21 0 789.27 0c286.5,-2.75 549.59,-4.13 789.27,-4.13l260.33 0 70.25 0 24.8 0 4.13 834.73 -28.93 0 -70.25 0 -260.33 0 -404.97 0 0 938.03 0 950.43 0 309.93 0 90.91 0 28.92 -830.59 0 0 -28.92 0 -86.78c0,-88.16 -1.38,-192.84 -4.13,-314.06l0 -950.43 0 -938.03 -334.72 0c-101.93,0 -188.71,1.38 -260.34,4.13l-74.38 0 -24.79 0 0 -834.73z"/>
      </clipPath>
      <clipPath id="id78">
       <path d="M20094.74 14618.41l24.79 0 74.38 0 256.21 0 789.27 0c286.5,-2.75 549.59,-4.13 789.27,-4.13l260.33 0 70.25 0 24.8 0 4.13 834.73 -28.93 0 -70.25 0 -260.33 0 -404.97 0 0 938.03 0 950.43 0 309.93 0 90.91 0 28.92 -830.59 0 0 -28.92 0 -86.78c0,-88.16 -1.38,-192.84 -4.13,-314.06l0 -950.43 0 -938.03 -334.72 0c-101.93,0 -188.71,1.38 -260.34,4.13l-74.38 0 -24.79 0 0 -834.73z"/>
      </clipPath>
     <clipPath id="id79" style="clip-rule:nonzero">
      <path d="M6702.39 20093.54l0 -1538.44 182.9 0 0 1538.44 -182.9 0z"/>
     </clipPath>
      <clipPath id="id80">
       <path d="M6702.39 20093.54l0 -1538.44 182.9 0 0 1538.44 -182.9 0z"/>
      </clipPath>
      <clipPath id="id81">
       <path d="M6702.39 20093.54l0 -1538.44 182.9 0 0 1538.44 -182.9 0z"/>
      </clipPath>
     <clipPath id="id82" style="clip-rule:nonzero">
      <path d="M9415.66 20153.79l-478.03 -1105.24 -193.29 1044.99 -178.59 0 311.99 -1598.68 537.92 1271.99 537.91 -1271.99 311.99 1598.68 -178.59 0 -195.44 -1044.99 -475.87 1105.24z"/>
     </clipPath>
      <clipPath id="id83">
       <path d="M9415.66 20153.79l-478.03 -1105.24 -193.29 1044.99 -178.59 0 311.99 -1598.68 537.92 1271.99 537.91 -1271.99 311.99 1598.68 -178.59 0 -195.44 -1044.99 -475.87 1105.24z"/>
      </clipPath>
      <clipPath id="id84">
       <path d="M9415.66 20153.79l-478.03 -1105.24 -193.29 1044.99 -178.59 0 311.99 -1598.68 537.92 1271.99 537.91 -1271.99 311.99 1598.68 -178.59 0 -195.44 -1044.99 -475.87 1105.24z"/>
      </clipPath>
     <clipPath id="id85" style="clip-rule:nonzero">
      <path d="M12429.79 18899.37l-244.57 565.89 489.5 0 -244.93 -565.89zm0 -404.51l699.65 1598.68 -198.31 0 -199.75 -471.21 -600.67 0 -199.75 471.21 -197.95 0 696.78 -1598.68z"/>
     </clipPath>
      <clipPath id="id86">
       <path d="M12429.79 18899.37l-244.57 565.89 489.5 0 -244.93 -565.89zm0 -404.51l699.65 1598.68 -198.31 0 -199.75 -471.21 -600.67 0 -199.75 471.21 -197.95 0 696.78 -1598.68z"/>
      </clipPath>
      <clipPath id="id87">
       <path d="M12429.79 18899.37l-244.57 565.89 489.5 0 -244.93 -565.89zm0 -404.51l699.65 1598.68 -198.31 0 -199.75 -471.21 -600.67 0 -199.75 471.21 -197.95 0 696.78 -1598.68z"/>
      </clipPath>
     <clipPath id="id88" style="clip-rule:nonzero">
      <path d="M15538.61 19299.58l634.73 0 0 51.28c0,242.42 -68.49,433.56 -205.84,573.42 -137.34,140.21 -324.9,210.14 -562.3,210.14 -72.44,0 -141.29,-7.53 -206.56,-22.95 -65.62,-15.42 -126.23,-38.01 -181.45,-67.42 -126.23,-69.21 -223.42,-164.96 -292.27,-287.24 -68.5,-122.29 -102.92,-261.07 -102.92,-416.71 0,-128.02 20.44,-243.85 61.32,-347.13 41.24,-103.28 102.92,-194.37 185.76,-272.55 69.21,-65.98 149.9,-115.83 241.7,-149.18 91.81,-33.71 193.29,-50.56 304.82,-50.56 147.75,0 275.77,26.89 384.43,80.33 108.66,53.43 198.67,134.12 270.04,242.06l-153.49 123c-55.23,-93.24 -124.08,-163.17 -206.92,-209.79 -82.48,-46.62 -178.59,-69.93 -287.6,-69.93 -178.59,0 -323.83,60.25 -435,180.74 -111.52,120.5 -167.11,278.29 -167.11,473.01 0,183.61 56.66,334.22 169.62,452.21 112.97,117.62 257.13,176.43 432.13,176.43 154.2,0 282.58,-46.62 385.15,-140.21 102.56,-93.6 159.58,-215.53 170.69,-365.43l-438.93 0 0 -163.52z"/>
     </clipPath>
      <clipPath id="id89">
       <path d="M15538.61 19299.58l634.73 0 0 51.28c0,242.42 -68.49,433.56 -205.84,573.42 -137.34,140.21 -324.9,210.14 -562.3,210.14 -72.44,0 -141.29,-7.53 -206.56,-22.95 -65.62,-15.42 -126.23,-38.01 -181.45,-67.42 -126.23,-69.21 -223.42,-164.96 -292.27,-287.24 -68.5,-122.29 -102.92,-261.07 -102.92,-416.71 0,-128.02 20.44,-243.85 61.32,-347.13 41.24,-103.28 102.92,-194.37 185.76,-272.55 69.21,-65.98 149.9,-115.83 241.7,-149.18 91.81,-33.71 193.29,-50.56 304.82,-50.56 147.75,0 275.77,26.89 384.43,80.33 108.66,53.43 198.67,134.12 270.04,242.06l-153.49 123c-55.23,-93.24 -124.08,-163.17 -206.92,-209.79 -82.48,-46.62 -178.59,-69.93 -287.6,-69.93 -178.59,0 -323.83,60.25 -435,180.74 -111.52,120.5 -167.11,278.29 -167.11,473.01 0,183.61 56.66,334.22 169.62,452.21 112.97,117.62 257.13,176.43 432.13,176.43 154.2,0 282.58,-46.62 385.15,-140.21 102.56,-93.6 159.58,-215.53 170.69,-365.43l-438.93 0 0 -163.52z"/>
      </clipPath>
      <clipPath id="id90">
       <path d="M15538.61 19299.58l634.73 0 0 51.28c0,242.42 -68.49,433.56 -205.84,573.42 -137.34,140.21 -324.9,210.14 -562.3,210.14 -72.44,0 -141.29,-7.53 -206.56,-22.95 -65.62,-15.42 -126.23,-38.01 -181.45,-67.42 -126.23,-69.21 -223.42,-164.96 -292.27,-287.24 -68.5,-122.29 -102.92,-261.07 -102.92,-416.71 0,-128.02 20.44,-243.85 61.32,-347.13 41.24,-103.28 102.92,-194.37 185.76,-272.55 69.21,-65.98 149.9,-115.83 241.7,-149.18 91.81,-33.71 193.29,-50.56 304.82,-50.56 147.75,0 275.77,26.89 384.43,80.33 108.66,53.43 198.67,134.12 270.04,242.06l-153.49 123c-55.23,-93.24 -124.08,-163.17 -206.92,-209.79 -82.48,-46.62 -178.59,-69.93 -287.6,-69.93 -178.59,0 -323.83,60.25 -435,180.74 -111.52,120.5 -167.11,278.29 -167.11,473.01 0,183.61 56.66,334.22 169.62,452.21 112.97,117.62 257.13,176.43 432.13,176.43 154.2,0 282.58,-46.62 385.15,-140.21 102.56,-93.6 159.58,-215.53 170.69,-365.43l-438.93 0 0 -163.52z"/>
      </clipPath>
     <clipPath id="id91" style="clip-rule:nonzero">
      <path d="M17886.44 20093.54l0 -1538.44 811.18 0 0 167.83 -628.29 0 0 441.09 628.29 0 0 169.98 -628.29 0 0 589.56 628.29 0 0 169.98 -811.18 0z"/>
     </clipPath>
      <clipPath id="id92">
       <path d="M17886.44 20093.54l0 -1538.44 811.18 0 0 167.83 -628.29 0 0 441.09 628.29 0 0 169.98 -628.29 0 0 589.56 628.29 0 0 169.98 -811.18 0z"/>
      </clipPath>
      <clipPath id="id93">
       <path d="M17886.44 20093.54l0 -1538.44 811.18 0 0 167.83 -628.29 0 0 441.09 628.29 0 0 169.98 -628.29 0 0 589.56 628.29 0 0 169.98 -811.18 0z"/>
      </clipPath>
     <clipPath id="id94">
      <rect x="11073.12" y="5707.37" width="9836.72" height="8693.21"/>
     </clipPath>
 </defs>
 <g id="Layer_x0020_1">
  <metadata id="CorelCorpID_0Corel-Layer"/>
  <g id="_2905893753264">
   <g>
   </g>
   <g style="clip-path:url(#id0)">
    <g id="_2905893771408">
    </g>
    <g style="clip-path:url(#id1)">
     <image x="-7157.02" y="-6489.14" width="39714.04" height="38378.28" xlink:href="GREATFITIMAGE_Images\GREATFITIMAGE_ImgID1.png"/>
    </g>
    <g style="clip-path:url(#id2)">
    </g>
    <g style="clip-path:url(#id3)">
     <image x="-16470.32" y="-16470.37" width="58340.69" height="58340.69" xlink:href="GREATFITIMAGE_Images\GREATFITIMAGE_ImgID2.png"/>
    </g>
    <g style="clip-path:url(#id4)">
    </g>
    <g style="clip-path:url(#id5)">
     <image x="20885.71" y="-226.97" width="14812.85" height="11394.49" xlink:href="GREATFITIMAGE_Images\GREATFITIMAGE_ImgID3.png"/>
    </g>
    <g style="clip-path:url(#id6)">
    </g>
    <g style="clip-path:url(#id7)">
     <image x="-10864.3" y="16847.48" width="14812.85" height="11394.49" xlink:href="GREATFITIMAGE_Images\GREATFITIMAGE_ImgID4.png"/>
    </g>
    <g style="clip-path:url(#id8)">
    </g>
    <g style="clip-path:url(#id9)">
     <image x="-11287.65" y="-2484.75" width="14812.85" height="11394.49" xlink:href="GREATFITIMAGE_Images\GREATFITIMAGE_ImgID5.png"/>
    </g>
    <g style="clip-path:url(#id10)">
    </g>
    <g style="clip-path:url(#id11)">
     <image x="21732.38" y="19951.95" width="14812.85" height="11394.49" xlink:href="GREATFITIMAGE_Images\GREATFITIMAGE_ImgID6.png"/>
    </g>
    <g style="clip-path:url(#id12)">
    </g>
   </g>
   <polygon class="fil0" points="-0,0 25400,0 25400,25400 -0,25400 "/>
   <g id="_2905893753840">
    <path class="fil1" d="M5459.78 6773.55c-1409.02,263.35 -2116.11,2439.31 -1826.14,4180.65 143.59,862.3 478.62,1628.36 961.72,2103.32 224.28,220.49 605.76,463.94 1080.21,477.86 374.16,10.98 1197.68,26.06 1541.86,-23.95 730.59,-106.16 1283.83,-874.31 1542.3,-1520.61 808.37,-2021.34 72.84,-5180.26 -1775.81,-5240.38 -341.78,-11.11 -1234.13,-31.1 -1524.14,23.11zm2234.16 57.62c167.64,159.21 758.79,285.22 1179.22,1279.75 556.83,1317.16 599.3,2775.14 -15.23,4083.61 -359.26,764.95 -604.85,926.17 -1227.74,1273.66 229.35,99.26 1868.42,321.7 2245,378.61 382,57.72 769.31,123.8 1148.68,186.82 197.57,32.82 382.97,63.42 577.06,95.02 174.49,28.42 394.15,82.85 490.41,66.15 131.35,-22.79 30.75,4.67 84.91,-30.06 81.06,-101.51 16.34,-6462.95 21.36,-7444.38 4.48,-875.7 276.32,-701.26 -1647.38,-378.69 -477.49,80.06 -2569.34,407.33 -2856.29,489.51zm4602.34 7377.09l2061.78 1.57c247.05,-7.96 305.44,-155.33 431.62,-281.63 542.39,-542.89 458.14,-362.38 457.54,-928.4 -2.43,-2281.06 -29.54,-4628.39 1.77,-6893.21l-2953.8 0.99 1.09 8100.68z"/>
    <g style="clip-path:url(#id13)">
     <g>
     </g>
     <g style="clip-path:url(#id14)">
      <image x="-6998.74" y="1736.72" width="23840.95" height="15893.96" xlink:href="GREATFITIMAGE_Images\GREATFITIMAGE_ImgID7.png"/>
     </g>
     <g style="clip-path:url(#id15)">
     </g>
    </g>
    <path class="fil0" d="M5459.78 6773.55c-1409.02,263.35 -2116.11,2439.31 -1826.14,4180.65 143.59,862.3 478.62,1628.36 961.72,2103.32 224.28,220.49 605.76,463.94 1080.21,477.86 374.16,10.98 1197.68,26.06 1541.86,-23.95 730.59,-106.16 1283.83,-874.31 1542.3,-1520.61 808.37,-2021.34 72.84,-5180.26 -1775.81,-5240.38 -341.78,-11.11 -1234.13,-31.1 -1524.14,23.11zm2234.16 57.62c167.64,159.21 758.79,285.22 1179.22,1279.75 556.83,1317.16 599.3,2775.14 -15.23,4083.61 -359.26,764.95 -604.85,926.17 -1227.74,1273.66 229.35,99.26 1868.42,321.7 2245,378.61 382,57.72 769.31,123.8 1148.68,186.82 197.57,32.82 382.97,63.42 577.06,95.02 174.49,28.42 394.15,82.85 490.41,66.15 131.35,-22.79 30.75,4.67 84.91,-30.06 81.06,-101.51 16.34,-6462.95 21.36,-7444.38 4.48,-875.7 276.32,-701.26 -1647.38,-378.69 -477.49,80.06 -2569.34,407.33 -2856.29,489.51zm4602.34 7377.09l2061.78 1.57c247.05,-7.96 305.44,-155.33 431.62,-281.63 542.39,-542.89 458.14,-362.38 457.54,-928.4 -2.43,-2281.06 -29.54,-4628.39 1.77,-6893.21l-2953.8 0.99 1.09 8100.68z"/>
    <g style="clip-path:url(#id16)">
     <image x="11445.61" y="5703.45" width="10254.44" height="7888.03" xlink:href="GREATFITIMAGE_Images\GREATFITIMAGE_ImgID8.png"/>
    </g>
    <path class="fil2" d="M5463.18 7127.78c-1544.72,218.84 -2238.59,3199.45 -1181.85,5115.75 227.25,412.11 781.46,1018.37 1491.63,919.69 1553.13,-215.81 2233.39,-3289.59 1167.09,-5131.08 -239.69,-413.95 -753.88,-1006.79 -1476.87,-904.36z"/>
    <path class="fil1" d="M5430.84 12813.4c-379.62,-279.96 -335.71,-166.73 -675.23,-726.73 -174.46,-287.75 -294.06,-655.99 -374.72,-1037.12 -144.15,-681.15 -110.68,-1924.44 304.79,-2362.11 -299.73,1175.79 -287.87,2360.43 407.43,3415.05 119.39,181.07 500.2,656.57 729.89,682.33 529.19,59.35 1102.67,-974.98 1256.47,-1555.13 424.81,-1602.5 -222.29,-3879.31 -1580.42,-3779.98 -1333.31,97.52 -1850.78,2406.87 -1399.71,3881.75 197.31,645.15 660.15,1459.85 1331.5,1481.94z"/>
    <g style="clip-path:url(#id17)">
     <g>
     </g>
     <g style="clip-path:url(#id18)">
      <image x="-16100.42" y="3006.71" width="23840.95" height="15893.96" xlink:href="GREATFITIMAGE_Images\GREATFITIMAGE_ImgID9.png"/>
     </g>
     <g style="clip-path:url(#id19)">
     </g>
    </g>
    <path class="fil0" d="M5430.84 12813.4c-379.62,-279.96 -335.71,-166.73 -675.23,-726.73 -174.46,-287.75 -294.06,-655.99 -374.72,-1037.12 -144.15,-681.15 -110.68,-1924.44 304.79,-2362.11 -299.73,1175.79 -287.87,2360.43 407.43,3415.05 119.39,181.07 500.2,656.57 729.89,682.33 529.19,59.35 1102.67,-974.98 1256.47,-1555.13 424.81,-1602.5 -222.29,-3879.31 -1580.42,-3779.98 -1333.31,97.52 -1850.78,2406.87 -1399.71,3881.75 197.31,645.15 660.15,1459.85 1331.5,1481.94z"/>
    <path class="fil1" d="M7895.5 6656.92c169.41,28.43 2668.92,-453.67 2820.97,-535.44l7.62 -869.23c-721.88,148.95 -1719.99,519.92 -2488.72,711.44 -447.73,111.54 -424.77,171.43 -339.87,693.23zm2961.49 -533c91.39,-0.11 501.62,-43.5 554.24,-86.95 98.57,-81.41 49.69,-465.9 43.51,-616.45l-598.88 -174.3 1.13 877.7z"/>
    <g style="clip-path:url(#id20)">
     <g>
     </g>
     <g style="clip-path:url(#id21)">
      <image x="-11514.3" y="-97.74" width="23840.95" height="15893.96" xlink:href="GREATFITIMAGE_Images\GREATFITIMAGE_ImgID10.png"/>
     </g>
     <g style="clip-path:url(#id22)">
     </g>
    </g>
    <path class="fil0" d="M7895.5 6656.92c169.41,28.43 2668.92,-453.67 2820.97,-535.44l7.62 -869.23c-721.88,148.95 -1719.99,519.92 -2488.72,711.44 -447.73,111.54 -424.77,171.43 -339.87,693.23zm2961.49 -533c91.39,-0.11 501.62,-43.5 554.24,-86.95 98.57,-81.41 49.69,-465.9 43.51,-616.45l-598.88 -174.3 1.13 877.7z"/>
    <path class="fil3" d="M6930.08 10245.83c206.66,-1160.4 -670.96,-2864.62 -1702.16,-2266.61 981.91,76.43 1619.84,1175.94 1702.16,2266.61z"/>
    <path class="fil3" d="M8541.54 8111.41c-1249.42,-1037.75 -1630.13,-920.17 -2420.94,-1287.64 1153.2,-13.7 1799.97,34.38 2420.94,1287.64z"/>
    <path class="fil3" d="M9895.1 8435.39c-272.98,-520.87 -664.73,-893.29 -1314.09,-943.68 438.03,314.56 748.18,708.49 1314.09,943.68z"/>
    <path class="fil3" d="M8995.56 13122.88c2432.38,-1084.09 1683.4,-5512.92 52.92,-5697.37 1569.43,843.54 1976.05,4330.47 -52.92,5697.37z"/>
    <path class="fil4" d="M4776.33 16209.35l1421.51 -12.39 -4.13 429.76c-19.28,159.78 -64.05,305.79 -134.3,438.02 -70.25,132.24 -155.65,240.36 -256.2,324.39 -100.55,84.02 -194.22,150.83 -281,200.42 -86.78,49.58 -175.62,90.91 -266.53,123.96 -352.63,123.97 -698.36,150.15 -1037.21,78.52 -352.63,-71.63 -637.76,-242.43 -855.39,-512.41 -234.16,-289.26 -351.25,-639.13 -351.25,-1049.6 0,-476.6 144.63,-863.66 433.9,-1161.18 258.95,-264.47 582.65,-415.99 971.09,-454.56 363.64,-35.81 698.36,31.68 1004.15,202.49 159.78,88.15 303.72,221.07 431.83,398.76 128.1,177.69 214.19,358.83 258.27,543.4l-851.26 12.4c-22.04,-93.67 -108.82,-181.82 -260.34,-264.47 -104.68,-60.61 -271.35,-79.89 -500.01,-57.85 -187.33,22.04 -337.47,89.53 -450.42,202.48 -129.48,137.75 -194.22,330.59 -194.22,578.53 0,212.12 52.35,385.68 157.03,520.67 88.16,104.68 214.88,179.06 380.17,223.14 338.85,85.4 619.85,23.42 843,-185.95l-247.94 0c-60.61,2.75 -112.95,4.13 -157.03,4.13l-45.46 0 -16.53 0 8.27 -582.66zm2647.03 -834.72l0 727.28c187.33,0 337.47,-8.26 450.42,-24.79 184.58,-30.3 319.56,-77.14 404.97,-140.5 71.62,-52.34 106.06,-133.61 103.3,-243.8 0,-85.41 -41.32,-150.15 -123.97,-194.22 -112.95,-63.37 -300.28,-103.31 -561.99,-119.84 -57.85,-2.76 -148.76,-4.13 -272.73,-4.13zm-458.69 -752.08c46.83,-2.76 78.52,-5.51 95.04,-8.27 283.76,-13.77 509.66,-15.15 677.7,-4.13 363.65,16.53 657.04,84.02 880.19,202.48 352.62,187.33 531.69,477.97 537.2,871.92 5.51,369.15 -130.86,658.42 -409.1,867.79 -63.37,49.58 -148.77,99.17 -256.21,148.76l760.35 1057.87 -1074.4 -16.53 -549.6 -867.78 -33.06 0 -165.29 0 0 888.44 -801.67 16.53 -49.59 -3148.82c170.81,-5.51 297.53,-8.26 380.18,-8.26l8.26 0zm3196.63 -20.66l173.56 0c143.25,0 356.76,-0.69 640.51,-2.07 283.75,-1.38 497.25,-2.07 640.51,-2.07l-4.14 855.39 -20.66 0c-5.51,0 -13.08,0.69 -22.73,2.07 -9.64,1.37 -19.97,2.06 -30.99,2.06l-194.22 0c-176.31,0 -371.91,1.38 -586.79,4.14l-417.36 0 0 309.92c71.63,0 150.14,-0.69 235.54,-2.07 85.4,-1.37 177.69,-2.06 276.87,-2.06l516.54 0 169.42 0 49.59 0 16.53 0 4.13 859.52 -16.53 0 -49.59 0 -169.42 0 -520.67 0 -508.28 0 0 276.86c27.55,0 79.89,0.69 157.03,2.07 77.14,1.38 158.41,2.06 243.81,2.06 217.63,0 417.36,1.38 599.18,4.14l198.35 0 53.72 0 20.67 0 -8.27 859.52 -16.53 0 -57.85 0 -194.22 0c-181.82,-2.76 -381.55,-4.14 -599.18,-4.14l-599.19 -4.13 -12.4 0 -640.5 0 0 -33.06 0 -103.3c-2.76,-99.18 -4.14,-217.64 -4.14,-355.38l0 -1086.8c-2.75,-396.7 -4.13,-758.97 -4.13,-1086.8l0 -359.51 0 -99.17 0 -37.19 421.5 0 260.33 0zm3287.54 2095.08l-132.24 -367.78 -185.95 -537.2 -148.76 516.54 -111.58 380.17c74.39,2.76 199.73,4.13 376.04,4.13 33.06,0 71.63,0.69 115.71,2.07 44.08,1.38 73,2.07 86.78,2.07zm177.69 -2082.69c60.6,176.31 112.95,326.45 157.02,450.42 101.93,297.53 216.26,623.98 342.99,979.36 123.97,358.13 236.92,684.59 338.85,979.36 44.07,126.72 82.64,234.16 115.7,322.32l152.9 417.36 -909.11 4.13c-8.27,-13.77 -15.15,-28.92 -20.66,-45.45 -8.27,-24.79 -17.91,-55.1 -28.93,-90.91l-37.19 -107.44 -495.88 -4.13c-190.08,0 -363.64,-1.38 -520.67,-4.14l-90.91 0 -37.19 132.24c-11.02,38.57 -20.66,70.25 -28.93,95.04l-8.26 33.06 -896.71 -20.66c52.34,-148.77 81.27,-232.79 86.78,-252.07 5.51,-24.8 13.77,-56.48 24.79,-95.05 27.55,-90.91 60.61,-201.1 99.17,-330.58l289.27 -1008.28c107.44,-366.4 205.23,-702.5 293.39,-1008.29l132.23 -446.29 20.67 0 0 -4.13 1020.68 4.13zm758.56 4.13l24.79 0 74.38 0 256.21 0 789.27 0c286.5,-2.75 549.59,-4.13 789.27,-4.13l260.33 0 70.25 0 24.8 0 4.13 834.73 -28.93 0 -70.25 0 -260.33 0 -404.97 0 0 938.03 0 950.43 0 309.93 0 90.91 0 28.92 -830.59 0 0 -28.92 0 -86.78c0,-88.16 -1.38,-192.84 -4.13,-314.06l0 -950.43 0 -938.03 -334.72 0c-101.93,0 -188.71,1.38 -260.34,4.13l-74.38 0 -24.79 0 0 -834.73zm2969.35 -8.26l16.53 0 1495.9 0 -4.14 582.66c-118.46,0 -294.77,0.68 -528.93,2.06 -234.17,1.38 -410.48,3.45 -528.94,6.2 -2.75,187.33 -4.13,389.81 -4.13,607.45l185.95 0 487.62 0c63.36,0 117.08,1.38 161.16,4.13l41.32 0 16.53 0 0 607.45 -16.53 0 -45.46 0c-44.07,-2.75 -97.79,-4.13 -161.16,-4.13l-483.48 0 -190.08 0c-2.76,143.25 -4.82,296.84 -6.2,460.75 -1.38,163.92 -2.07,296.84 -2.07,398.77 -2.75,140.5 -4.13,258.96 -4.13,355.38l0 103.31 0 33.05 -859.52 -8.26 0 -33.06 0 -99.17c0,-99.18 1.38,-217.64 4.13,-355.38 2.76,-327.83 5.51,-688.72 8.27,-1082.67 2.75,-393.94 5.51,-753.46 8.26,-1078.53 2.76,-140.5 4.13,-260.34 4.13,-359.51l4.14 -140.5c176.31,0 309.92,1.38 400.83,4.13l0 -4.13zm2655.3 0l0 37.19 0 99.18 0 359.51 0 1082.66c0,393.95 -1.38,756.21 -4.13,1086.8l0 355.38 0 103.31 0 33.05 -826.47 0 0 -37.19 0 -99.17 0 -355.38c2.76,-330.59 4.14,-692.85 4.14,-1086.8l0 -1086.8 0 -355.37 0 -99.18 0 -37.19 826.46 0zm85 8.26l24.79 0 74.38 0 256.21 0 789.27 0c286.5,-2.75 549.59,-4.13 789.27,-4.13l260.33 0 70.25 0 24.8 0 4.13 834.73 -28.93 0 -70.25 0 -260.33 0 -404.97 0 0 938.03 0 950.43 0 309.93 0 90.91 0 28.92 -830.59 0 0 -28.92 0 -86.78c0,-88.16 -1.38,-192.84 -4.13,-314.06l0 -950.43 0 -938.03 -334.72 0c-101.93,0 -188.71,1.38 -260.34,4.13l-74.38 0 -24.79 0 0 -834.73z"/>
    <g style="clip-path:url(#id23)">
     <g>
     </g>
     <g style="clip-path:url(#id24)">
      <image x="-345.24" y="-11386.75" width="80181.28" height="53454.17" xlink:href="GREATFITIMAGE_Images\GREATFITIMAGE_ImgID11.png"/>
     </g>
     <g style="clip-path:url(#id25)">
     </g>
     <g style="clip-path:url(#id26)">
     </g>
     <g style="clip-path:url(#id27)">
      <image x="15102.09" y="13884.52" width="8693.2" height="9836.72" xlink:href="GREATFITIMAGE_Images\GREATFITIMAGE_ImgID12.png"/>
     </g>
     <g style="clip-path:url(#id28)">
     </g>
     <g style="clip-path:url(#id29)">
     </g>
    </g>
    <g style="clip-path:url(#id30)">
     <g>
     </g>
     <g style="clip-path:url(#id31)">
      <image x="-345.24" y="-11386.75" width="80181.28" height="53454.17" xlink:href="GREATFITIMAGE_Images\GREATFITIMAGE_ImgID13.png"/>
     </g>
     <g style="clip-path:url(#id32)">
     </g>
     <g style="clip-path:url(#id33)">
     </g>
     <g style="clip-path:url(#id34)">
      <image x="15102.09" y="13884.52" width="8693.2" height="9836.72" xlink:href="GREATFITIMAGE_Images\GREATFITIMAGE_ImgID14.png"/>
     </g>
     <g style="clip-path:url(#id35)">
     </g>
     <g style="clip-path:url(#id36)">
     </g>
    </g>
    <g style="clip-path:url(#id37)">
     <g>
     </g>
     <g style="clip-path:url(#id38)">
      <image x="-345.24" y="-11386.75" width="80181.28" height="53454.17" xlink:href="GREATFITIMAGE_Images\GREATFITIMAGE_ImgID15.png"/>
     </g>
     <g style="clip-path:url(#id39)">
     </g>
     <g style="clip-path:url(#id40)">
     </g>
     <g style="clip-path:url(#id41)">
      <image x="15102.09" y="13884.52" width="8693.2" height="9836.72" xlink:href="GREATFITIMAGE_Images\GREATFITIMAGE_ImgID16.png"/>
     </g>
     <g style="clip-path:url(#id42)">
     </g>
     <g style="clip-path:url(#id43)">
     </g>
    </g>
    <g style="clip-path:url(#id44)">
     <g>
     </g>
     <g style="clip-path:url(#id45)">
      <image x="-345.24" y="-11386.75" width="80181.28" height="53454.17" xlink:href="GREATFITIMAGE_Images\GREATFITIMAGE_ImgID17.png"/>
     </g>
     <g style="clip-path:url(#id46)">
     </g>
     <g style="clip-path:url(#id47)">
     </g>
     <g style="clip-path:url(#id48)">
      <image x="15102.09" y="13884.52" width="8693.2" height="9836.72" xlink:href="GREATFITIMAGE_Images\GREATFITIMAGE_ImgID18.png"/>
     </g>
     <g style="clip-path:url(#id49)">
     </g>
     <g style="clip-path:url(#id50)">
     </g>
    </g>
    <g style="clip-path:url(#id51)">
     <g>
     </g>
     <g style="clip-path:url(#id52)">
      <image x="-345.24" y="-11386.75" width="80181.28" height="53454.17" xlink:href="GREATFITIMAGE_Images\GREATFITIMAGE_ImgID19.png"/>
     </g>
     <g style="clip-path:url(#id53)">
     </g>
     <g style="clip-path:url(#id54)">
     </g>
     <g style="clip-path:url(#id55)">
      <image x="15102.09" y="13884.52" width="8693.2" height="9836.72" xlink:href="GREATFITIMAGE_Images\GREATFITIMAGE_ImgID20.png"/>
     </g>
     <g style="clip-path:url(#id56)">
     </g>
     <g style="clip-path:url(#id57)">
     </g>
    </g>
    <g style="clip-path:url(#id58)">
     <g>
     </g>
     <g style="clip-path:url(#id59)">
      <image x="-345.24" y="-11386.75" width="80181.28" height="53454.17" xlink:href="GREATFITIMAGE_Images\GREATFITIMAGE_ImgID21.png"/>
     </g>
     <g style="clip-path:url(#id60)">
     </g>
     <g style="clip-path:url(#id61)">
     </g>
     <g style="clip-path:url(#id62)">
      <image x="15102.09" y="13884.52" width="8693.2" height="9836.72" xlink:href="GREATFITIMAGE_Images\GREATFITIMAGE_ImgID22.png"/>
     </g>
     <g style="clip-path:url(#id63)">
     </g>
     <g style="clip-path:url(#id64)">
     </g>
    </g>
    <g style="clip-path:url(#id65)">
     <g>
     </g>
     <g style="clip-path:url(#id66)">
      <image x="-345.24" y="-11386.75" width="80181.28" height="53454.17" xlink:href="GREATFITIMAGE_Images\GREATFITIMAGE_ImgID23.png"/>
     </g>
     <g style="clip-path:url(#id67)">
     </g>
     <g style="clip-path:url(#id68)">
     </g>
     <g style="clip-path:url(#id69)">
      <image x="15102.09" y="13884.52" width="8693.2" height="9836.72" xlink:href="GREATFITIMAGE_Images\GREATFITIMAGE_ImgID24.png"/>
     </g>
     <g style="clip-path:url(#id70)">
     </g>
     <g style="clip-path:url(#id71)">
     </g>
    </g>
    <g style="clip-path:url(#id72)">
     <g>
     </g>
     <g style="clip-path:url(#id73)">
      <image x="-345.24" y="-11386.75" width="80181.28" height="53454.17" xlink:href="GREATFITIMAGE_Images\GREATFITIMAGE_ImgID25.png"/>
     </g>
     <g style="clip-path:url(#id74)">
     </g>
     <g style="clip-path:url(#id75)">
     </g>
     <g style="clip-path:url(#id76)">
      <image x="15102.09" y="13884.52" width="8693.2" height="9836.72" xlink:href="GREATFITIMAGE_Images\GREATFITIMAGE_ImgID26.png"/>
     </g>
     <g style="clip-path:url(#id77)">
     </g>
     <g style="clip-path:url(#id78)">
     </g>
    </g>
    <path class="fil4" d="M6702.39 20093.54l0 -1538.44 182.9 0 0 1538.44 -182.9 0zm2713.27 60.25l-478.03 -1105.24 -193.29 1044.99 -178.59 0 311.99 -1598.68 537.92 1271.99 537.91 -1271.99 311.99 1598.68 -178.59 0 -195.44 -1044.99 -475.87 1105.24zm3014.13 -1254.42l-244.57 565.89 489.5 0 -244.93 -565.89zm0 -404.51l699.65 1598.68 -198.31 0 -199.75 -471.21 -600.67 0 -199.75 471.21 -197.95 0 696.78 -1598.68zm3108.82 804.72l634.73 0 0 51.28c0,242.42 -68.49,433.56 -205.84,573.42 -137.34,140.21 -324.9,210.14 -562.3,210.14 -72.44,0 -141.29,-7.53 -206.56,-22.95 -65.62,-15.42 -126.23,-38.01 -181.45,-67.42 -126.23,-69.21 -223.42,-164.96 -292.27,-287.24 -68.5,-122.29 -102.92,-261.07 -102.92,-416.71 0,-128.02 20.44,-243.85 61.32,-347.13 41.24,-103.28 102.92,-194.37 185.76,-272.55 69.21,-65.98 149.9,-115.83 241.7,-149.18 91.81,-33.71 193.29,-50.56 304.82,-50.56 147.75,0 275.77,26.89 384.43,80.33 108.66,53.43 198.67,134.12 270.04,242.06l-153.49 123c-55.23,-93.24 -124.08,-163.17 -206.92,-209.79 -82.48,-46.62 -178.59,-69.93 -287.6,-69.93 -178.59,0 -323.83,60.25 -435,180.74 -111.52,120.5 -167.11,278.29 -167.11,473.01 0,183.61 56.66,334.22 169.62,452.21 112.97,117.62 257.13,176.43 432.13,176.43 154.2,0 282.58,-46.62 385.15,-140.21 102.56,-93.6 159.58,-215.53 170.69,-365.43l-438.93 0 0 -163.52zm2347.83 793.96l0 -1538.44 811.18 0 0 167.83 -628.29 0 0 441.09 628.29 0 0 169.98 -628.29 0 0 589.56 628.29 0 0 169.98 -811.18 0z"/>
    <g style="clip-path:url(#id79)">
     <g>
     </g>
     <g style="clip-path:url(#id80)">
      <image x="4844.67" y="614.27" width="41749.8" height="27833.19" xlink:href="GREATFITIMAGE_Images\GREATFITIMAGE_ImgID27.png"/>
     </g>
     <g style="clip-path:url(#id81)">
     </g>
    </g>
    <g style="clip-path:url(#id82)">
     <g>
     </g>
     <g style="clip-path:url(#id83)">
      <image x="4844.67" y="614.27" width="41749.8" height="27833.19" xlink:href="GREATFITIMAGE_Images\GREATFITIMAGE_ImgID28.png"/>
     </g>
     <g style="clip-path:url(#id84)">
     </g>
    </g>
    <g style="clip-path:url(#id85)">
     <g>
     </g>
     <g style="clip-path:url(#id86)">
      <image x="4844.67" y="614.27" width="41749.8" height="27833.19" xlink:href="GREATFITIMAGE_Images\GREATFITIMAGE_ImgID29.png"/>
     </g>
     <g style="clip-path:url(#id87)">
     </g>
    </g>
    <g style="clip-path:url(#id88)">
     <g>
     </g>
     <g style="clip-path:url(#id89)">
      <image x="4844.67" y="614.27" width="41749.8" height="27833.19" xlink:href="GREATFITIMAGE_Images\GREATFITIMAGE_ImgID30.png"/>
     </g>
     <g style="clip-path:url(#id90)">
     </g>
    </g>
    <g style="clip-path:url(#id91)">
     <g>
     </g>
     <g style="clip-path:url(#id92)">
      <image x="4844.67" y="614.27" width="41749.8" height="27833.19" xlink:href="GREATFITIMAGE_Images\GREATFITIMAGE_ImgID31.png"/>
     </g>
     <g style="clip-path:url(#id93)">
     </g>
    </g>
    <g style="clip-path:url(#id94)">
     <image x="11073.12" y="5707.38" width="9836.72" height="8693.2" xlink:href="GREATFITIMAGE_Images\GREATFITIMAGE_ImgID32.png"/>
    </g>
   </g>
  </g>
 </g>
</svg>
